<svg id="gear" xmlns="http://www.w3.org/2000/svg" width="64" height="64"><path d="M36.57 32q0-3.79-2.68-6.46t-6.46-2.68-6.47 2.68T18.28 32t2.68 6.46 6.47 2.68 6.46-2.68T36.57 32zm18.29-3.9v7.94q0 .43-.29.82t-.71.46l-6.61 1q-.68 1.93-1.4 3.25 1.26 1.79 3.83 4.93.35.43.35.9t-.32.81q-.96 1.32-3.53 3.86t-3.36 2.54q-.43 0-.93-.32l-4.93-3.86q-1.57.82-3.25 1.36-.57 4.85-1.03 6.64-.25 1-1.29 1h-7.93q-.5 0-.87-.3t-.41-.77l-1-6.57q-1.75-.57-3.22-1.32l-5.03 3.82q-.36.32-.9.32-.5 0-.89-.4-4.5-4.07-5.9-6Q5 47.86 5 47.4q0-.43.28-.82.54-.75 1.82-2.37t1.93-2.52q-.96-1.79-1.46-3.54l-6.54-.96q-.46-.07-.75-.45T0 35.9v-7.92q0-.43.28-.83t.68-.46l6.64-1q.5-1.64 1.4-3.29-1.43-2.03-3.82-4.92-.36-.43-.36-.86 0-.36.32-.82.93-1.29 3.52-3.84t3.37-2.56q.47 0 .93.36l4.93 3.82q1.57-.82 3.25-1.35.57-4.86 1.04-6.65.25-1 1.28-1h7.93q.5 0 .88.3t.4.77l1 6.58q1.76.57 3.22 1.32l5.07-3.82q.32-.33.86-.33.46 0 .9.36 4.6 4.25 5.89 6.07.25.29.25.79 0 .43-.29.82-.54.75-1.82 2.37t-1.93 2.52q.93 1.79 1.46 3.5l6.54 1q.46.07.75.45t.29.84z"/></svg>